<svg xmlns="http://www.w3.org/2000/svg" width="512" height="512" viewBox="0 0 512 512">
  <defs>
    <style>
      .cls-1 {
        fill: #fff;
        fill-rule: evenodd;
      }
    </style>
  </defs>
  <path id="Forma_1" data-name="Forma 1" class="cls-1" d="M466.61,371.448A51.612,51.612,0,0,0,510,320.538V268.914a8.6,8.6,0,0,0-8.6-8.6H260.537a8.6,8.6,0,0,0-8.6,8.6V346.35H234.891v-206.5a8.5,8.5,0,0,0-.7-3.382L209.1,77.9V36.6a8.6,8.6,0,0,0-8.6-8.6H45.754a8.6,8.6,0,0,0-8.6,8.6V77.9L12.062,136.5a8.5,8.5,0,0,0-.7,3.356V435.428A27.2,27.2,0,0,0,28.19,484.015H449.82a8.593,8.593,0,0,0,7.737-4.758l14.77-29.658H510V432.391H432.307A86.053,86.053,0,0,0,466.61,371.448Zm0.4-93.93h25.792v43.02a34.414,34.414,0,0,1-25.792,33.195V277.518ZM213.261,131.249H187.745L200.5,101.47Zm4.436,17.208V346.35H183.309V148.457H217.7ZM54.351,45.208H191.906V71.02H54.351V45.208ZM51.42,88.228H187.47l-18.424,43.021H33ZM28.56,148.457H166.114V346.35H147.845a26.731,26.731,0,0,0-25.507,18.06L80.5,376.37a27.339,27.339,0,0,0-19.481,23.437L28.56,423.013V148.457Zm-0.37,318.35a10.059,10.059,0,0,1-5.837-18.232l41.172-29.434,9.526,47.666H28.19Zm62.39,0L78.14,404.531a10.1,10.1,0,0,1,7.084-11.624l36.348-10.394,11.4,84.294H90.58Zm59.75,0L137.9,374.924a10.04,10.04,0,0,1,8.621-11.277,10.149,10.149,0,0,1,1.326-.089h104.1a86.063,86.063,0,0,0,34.7,68.833H217.7V449.6H255.37l8.6,17.208H150.33ZM453.1,449.6l-8.6,17.208H283.19l-8.6-17.208H453.1ZM380.9,432.391h-42.84a69.036,69.036,0,0,1-68.923-68.979V277.518H449.82v85.894A69.028,69.028,0,0,1,380.9,432.391Zm-34.389-34.416a43.055,43.055,0,0,1-42.986-43.021v-8.6H286.328v8.6a60.283,60.283,0,0,0,60.18,60.229h8.6V397.975h-8.6Zm-60.18-86.041h17.194v17.208H286.328V311.934Zm167.79-154.873H350.953a12.906,12.906,0,0,1,0-25.812H389.64a43.055,43.055,0,0,0,42.986-43.021H415.431a25.8,25.8,0,0,1-25.791,25.813H350.953a30.114,30.114,0,0,0,0,60.228H454.118a12.906,12.906,0,0,1,0,25.812H329.46A43.055,43.055,0,0,0,286.474,243.1h17.194a25.8,25.8,0,0,1,25.792-25.813H454.118A30.114,30.114,0,0,0,454.118,157.061ZM97.337,191.477a34.417,34.417,0,1,0,34.389,34.416A34.4,34.4,0,0,0,97.337,191.477Zm0,51.625a17.209,17.209,0,1,1,17.194-17.209A17.2,17.2,0,0,1,97.337,243.1ZM62.949,277.518h68.777v17.208H62.949V277.518Zm0,34.416h68.777v17.208H62.949V311.934Z"/>
</svg>
