<svg xmlns="http://www.w3.org/2000/svg" width="35.05" height="35" viewBox="0 0 35.05 35">
  <g id="Group_219" data-name="Group 219" transform="translate(-320 -505)">
    <circle id="Ellipse_111" data-name="Ellipse 111" cx="17.5" cy="17.5" r="17.5" transform="translate(320 505)" fill="#f1261c" opacity="0.2"/>
    <g id="Group_171" data-name="Group 171" transform="translate(-534.998 -1926.011)">
      <path id="Path_6729" data-name="Path 6729" d="M31.784,34.907a2,2,0,0,0-2.721-.732l-9.05,5.274a2.5,2.5,0,0,0-2.5-2.491h-10a.518.518,0,0,0-.121.015l-1.4.35A1.5,1.5,0,0,0,4.5,35.957h-1a1.5,1.5,0,0,0-1.5,1.5v9.006a1.5,1.5,0,0,0,1.5,1.5h1a1.5,1.5,0,0,0,1.487-1.359l1.4.344a.5.5,0,0,0,.12.015h6.875a2.5,2.5,0,0,0,1.259-.34l15.42-8.985a2.017,2.017,0,0,0,.726-2.733ZM5,46.465a.5.5,0,0,1-.5.5h-1a.5.5,0,0,1-.5-.5V37.458a.5.5,0,0,1,.5-.5h1a.5.5,0,0,1,.5.5Zm25.551-9.689L15.134,45.76a1.5,1.5,0,0,1-.756.2H7.565L6,45.58V38.35l1.569-.391h9.94A1.5,1.5,0,0,1,18.8,40.227a1.586,1.586,0,0,1-.223.292,1.51,1.51,0,0,1-1.065.441h-5v1h5a2.469,2.469,0,0,0,2.073-1.1l9.979-5.816a.983.983,0,0,1,1.351.364,1.012,1.012,0,0,1-.361,1.371Z" transform="translate(858 2415.056)" fill="#f1261c"/>
      <path id="Path_6730" data-name="Path 6730" d="M2.5,17.011H23.515a.5.5,0,0,0,.5-.5V12.246l1.444.578a1.5,1.5,0,0,0,1.115,0l1.444-.578v1.262a.5.5,0,0,0,.5.5h3a.5.5,0,0,0,.5-.5V2.5a.5.5,0,0,0-.5-.5h-3a.5.5,0,0,0-.5.5V3H17.511a.5.5,0,0,0-.354.147L15.3,5H2.5a.5.5,0,0,0-.5.5V16.51A.5.5,0,0,0,2.5,17.011ZM29.019,3h2V13.008h-2Zm-11.3,1h10.3v7.167l-1.815.726a.5.5,0,0,1-.372,0l-2.13-.851a.506.506,0,0,0-.186-.037h-4.5a1,1,0,0,1,0-2h6.5V8h-1.5V5.5a.5.5,0,0,0-.5-.5h-6.8ZM3,6H23.015V8h-4a2,2,0,1,0,0,4h4v4H3Z" transform="translate(858 2431)" fill="#f1261c"/>
      <path id="Path_6731" data-name="Path 6731" d="M20,12a4,4,0,1,0,4,4A4,4,0,0,0,20,12Zm0,7.005a3,3,0,1,1,3-3A3,3,0,0,1,20,19.005Z" transform="translate(851.005 2426.004)" fill="#f1261c"/>
      <path id="Path_6732" data-name="Path 6732" d="M6,12.5v2H7V13H8.5V12h-2A.5.5,0,0,0,6,12.5Z" transform="translate(856.001 2426.004)" fill="#f1261c"/>
      <path id="Path_6733" data-name="Path 6733" d="M7,23H6v2a.5.5,0,0,0,.5.5h2v-1H7Z" transform="translate(856.001 2420.507)" fill="#f1261c"/>
      <path id="Path_6734" data-name="Path 6734" d="M38.5,24.5H37v1h2a.5.5,0,0,0,.5-.5V23h-1Z" transform="translate(840.513 2420.507)" fill="#f1261c"/>
    </g>
  </g>
</svg>
