<svg id="money-bag" xmlns="http://www.w3.org/2000/svg" width="30.54" height="31.632" viewBox="0 0 30.54 31.632">
  <g id="Group_179" data-name="Group 179" transform="translate(4.238 24.508)">
    <g id="Group_178" data-name="Group 178" transform="translate(0 0)">
      <ellipse id="Ellipse_113" data-name="Ellipse 113" cx="0.618" cy="0.618" rx="0.618" ry="0.618" fill="#f1261c"/>
    </g>
  </g>
  <g id="Group_181" data-name="Group 181" transform="translate(27.898 17.14)">
    <g id="Group_180" data-name="Group 180" transform="translate(0 0)">
      <ellipse id="Ellipse_114" data-name="Ellipse 114" cx="0.618" cy="0.618" rx="0.618" ry="0.618" fill="#f1261c"/>
    </g>
  </g>
  <g id="Group_183" data-name="Group 183" transform="translate(18.637 9.097)">
    <g id="Group_182" data-name="Group 182" transform="translate(0)">
      <path id="Path_6743" data-name="Path 6743" d="M2.728,4.022H1.779a.544.544,0,0,1-.544-.544V2.926a.544.544,0,0,1,.544-.544H2.83a.442.442,0,0,1,.441.441.618.618,0,1,0,1.236,0A1.679,1.679,0,0,0,2.872,1.148V.618a.618.618,0,1,0-1.236,0v.536A1.781,1.781,0,0,0,0,2.926v.552A1.781,1.781,0,0,0,1.779,5.258h.949a.544.544,0,0,1,.544.544v.552a.544.544,0,0,1-.544.544H1.677a.442.442,0,0,1-.441-.441A.618.618,0,0,0,0,6.456,1.679,1.679,0,0,0,1.636,8.131v.53a.618.618,0,0,0,1.236,0V8.126A1.781,1.781,0,0,0,4.507,6.353V5.8A1.781,1.781,0,0,0,2.728,4.022Z" fill="#f1261c"/>
    </g>
  </g>
  <g id="Group_185" data-name="Group 185" transform="translate(0 0)">
    <g id="Group_184" data-name="Group 184" transform="translate(0 0)">
      <path id="Path_6744" data-name="Path 6744" d="M30.338,20.944a2.356,2.356,0,0,0-3.107-1.2l-.009,0-3.891,1.795a.618.618,0,1,0,.517,1.122l3.886-1.792a1.121,1.121,0,0,1,.9,2.052l-7.964,3.516a4.594,4.594,0,0,1-3.911-.089L13.846,24.9a5.826,5.826,0,0,0-4.96-.112L8.85,24.8,6.689,19.911l3-1.326A6,6,0,0,1,14.2,18.44l5.862,2.153a1.034,1.034,0,0,1-.688,1.951L14.845,21.01a.618.618,0,0,0-.4,1.17l4.533,1.533A2.27,2.27,0,0,0,21.857,22.3a2.283,2.283,0,0,0-1.365-2.866L14.63,17.28a7.321,7.321,0,0,0-1.2-.329V13.537A6.114,6.114,0,0,1,19.535,7.43h2.256A6.114,6.114,0,0,1,27.9,13.537v1.61a.618.618,0,1,0,1.236,0v-1.61A7.354,7.354,0,0,0,23.2,6.331V4.47L24.763,1.8a.618.618,0,0,0-.278-.874L22.571.055a.618.618,0,0,0-.465-.019L20.685.548l-1.26-.5a.619.619,0,0,0-.452,0l-2,.773a.618.618,0,0,0-.318.876l1.537,2.772V6.318a7.354,7.354,0,0,0-6,7.218v3.3a7.243,7.243,0,0,0-3,.621L6.167,18.79a1.529,1.529,0,0,0-1.888-.549L.37,19.955a.618.618,0,0,0-.37.566V31.014a.618.618,0,0,0,.9.551L8.488,27.73a1.532,1.532,0,0,0,.845-1.789l.053-.024a4.594,4.594,0,0,1,3.911.089l2.915,1.448a5.827,5.827,0,0,0,4.96.112l7.964-3.516a2.356,2.356,0,0,0,1.2-3.107ZM21.967,6.194H19.425V4.92h2.542V6.194Zm-3.89-4.482,1.115-.43,1.253.5a.617.617,0,0,0,.439.008l1.405-.506,1.063.483L22.23,3.685H19.171ZM7.972,26.608l-.029.014L1.236,30.01v-2.5l1.737-.853a.618.618,0,0,0-.545-1.109l-1.192.585v-5.2l3.542-1.552a.3.3,0,0,1,.39.151l.142.321h0l2.814,6.373A.3.3,0,0,1,7.972,26.608Z" transform="translate(0 0)" fill="#f1261c"/>
    </g>
  </g>
</svg>
