<svg xmlns="http://www.w3.org/2000/svg" width="20.342" height="25.655" viewBox="0 0 20.342 25.655">
  <g id="order" transform="translate(-53.02)">
    <g id="Group_164" data-name="Group 164" transform="translate(53.02)">
      <g id="Group_163" data-name="Group 163" transform="translate(0)">
        <path id="Path_6710" data-name="Path 6710" d="M73.35,21.156,72.2,6.72a1.8,1.8,0,0,0-1.791-1.659H68.15v-.1a4.959,4.959,0,1,0-9.918,0v.1H55.969a1.8,1.8,0,0,0-1.791,1.657L53.032,21.158a4.177,4.177,0,0,0,4.165,4.5H69.185a4.177,4.177,0,0,0,4.165-4.5ZM59.735,4.959a3.456,3.456,0,0,1,6.913,0v.1H59.735ZM71.147,23.3a2.647,2.647,0,0,1-1.962.857H57.2a2.674,2.674,0,0,1-2.667-2.877L55.676,6.834a.3.3,0,0,1,.292-.271h2.263V8.414a.751.751,0,1,0,1.5,0V6.564h6.913V8.414a.751.751,0,1,0,1.5,0V6.564h2.263a.3.3,0,0,1,.293.273l1.146,14.437A2.647,2.647,0,0,1,71.147,23.3Z" transform="translate(-53.02)" fill="#f1261c"/>
      </g>
    </g>
    <g id="Group_166" data-name="Group 166" transform="translate(59.586 12.522)">
      <g id="Group_165" data-name="Group 165">
        <path id="Path_6711" data-name="Path 6711" d="M191.042,250.113a.751.751,0,0,0-1.062,0l-3.355,3.355-1.29-1.29a.751.751,0,0,0-1.063,1.063l1.821,1.821a.751.751,0,0,0,1.062,0l3.886-3.886A.751.751,0,0,0,191.042,250.113Z" transform="translate(-184.052 -249.893)" fill="#f1261c"/>
      </g>
    </g>
  </g>
</svg>
