<svg xmlns="http://www.w3.org/2000/svg" width="30.645" height="30.646" viewBox="0 0 30.645 30.646">
  <g id="question_1_" data-name="question (1)" transform="translate(-0.003 0)">
    <g id="Group_187" data-name="Group 187" transform="translate(0.003 0)">
      <g id="Group_186" data-name="Group 186" transform="translate(0 0)">
        <path id="Path_6745" data-name="Path 6745" d="M30.528,27.752l-2.1-6.123a14.972,14.972,0,1,0-13.435,8.343h.024a15.032,15.032,0,0,0,6.62-1.551l6.123,2.1a2.2,2.2,0,0,0,.716.12,2.185,2.185,0,0,0,2.058-2.894Zm-1.806.968a.351.351,0,0,1-.377.087l-6.488-2.229a.908.908,0,0,0-.72.056,13.164,13.164,0,1,1,5.5-5.5.908.908,0,0,0-.056.72l2.229,6.488A.351.351,0,0,1,28.722,28.719Z" transform="translate(-0.003 0)" fill="#f1261c"/>
      </g>
    </g>
    <g id="Group_189" data-name="Group 189" transform="translate(13.932 21.712)">
      <g id="Group_188" data-name="Group 188">
        <path id="Path_6746" data-name="Path 6746" d="M233.628,362.748a.908.908,0,1,0,.908.908A.919.919,0,0,0,233.628,362.748Z" transform="translate(-232.719 -362.748)" fill="#f1261c"/>
      </g>
    </g>
    <g id="Group_191" data-name="Group 191" transform="translate(10.321 7.642)">
      <g id="Group_190" data-name="Group 190">
        <path id="Path_6747" data-name="Path 6747" d="M176.915,127.674a4.525,4.525,0,0,0-4.52,4.52.908.908,0,1,0,1.817,0,2.7,2.7,0,1,1,2.7,2.7.909.909,0,0,0-.908.908v3.705a.908.908,0,1,0,1.817,0v-2.889a4.52,4.52,0,0,0-.908-8.948Z" transform="translate(-172.395 -127.674)" fill="#f1261c"/>
      </g>
    </g>
  </g>
</svg>
